PathFileType	4	(X/Y/Z)	24_2_38_p1_0-273.trc
DataRate	CameraRate	NumFrames	NumMarkers	Units	OrigDataRate	OrigDataStartFrame	OrigNumFrames
59.0	59.0	5	27	m	59.0	239	274
Frame#	Time	RHip			RKnee			RAnkle			RBigToe			RSmallToe			RHeel			LHip			LKnee			LAnkle			LBigToe			LSmallToe			LHeel			Neck			Head			Nose			RShoulder			RElbow			RWrist			RThumb			RIndex			RPinky			LShoulder			LElbow			LWrist			LThumb			LIndex			LPinky			
		X1	Y1	Z1	X2	Y2	Z2	X3	Y3	Z3	X4	Y4	Z4	X5	Y5	Z5	X6	Y6	Z6	X7	Y7	Z7	X8	Y8	Z8	X9	Y9	Z9	X10	Y10	Z10	X11	Y11	Z11	X12	Y12	Z12	X13	Y13	Z13	X14	Y14	Z14	X15	Y15	Z15	X16	Y16	Z16	X17	Y17	Z17	X18	Y18	Z18	X19	Y19	Z19	X20	Y20	Z20	X21	Y21	Z21	X22	Y22	Z22	X23	Y23	Z23	X24	Y24	Z24	X25	Y25	Z25	X26	Y26	Z26	X27	Y27	Z27	
239	4.0508474576271185	0.4411174757003522	0.38502496458672686	0.8416364701514599	0.44708345033623975	0.5122143624785293	1.2787976252622246	0.44108524680953415	0.6576506238350863	1.6979833978476484	0.4104815593493405	0.5764629823569565	1.7401465477136395	0.46524920265684105	0.6111640644610293	1.7412981750297656	0.41857309492220207	0.6851346888800961	1.724939130565307	0.23708122399584275	0.3803214172968596	0.8392975225881836	0.23876100936503458	0.5113209555155216	1.2810252551157293	0.2099013931377496	0.6453929797120023	1.7103006702798849	0.26226464940316585	0.5212040599434322	1.7194515503356416	0.19668301938864563	0.5443676902589071	1.7248247958006448	0.217215941084095	0.6640512415908563	1.7400964400686052	0.3468536752964403	0.3733783981044363	0.2910612423616173	0.3788627781687877	0.3148049555877879	0.0696896177796361	0.38256126686592035	0.2647571966081693	0.1954498596519357	0.4828671592517515	0.4139475400770397	0.38920237830920984	0.5325872876507792	0.43277743529776297	0.6579079509668727	0.5487280729758532	0.3549417425826084	0.8764252844916149	0.4628718710868553	0.21548258556662972	0.9134268146193071	0.4683194478776899	0.21926004115927367	0.9771509922636635	0.49831851597927	0.27442287678481864	1.0055829453327518	0.17932068780220148	0.3586006427275165	0.3696605848394861	0.13112478752368034	0.34920724300789485	0.6240549087194278	0.27420234516646946	0.21847287260480613	0.7617799368042986	0.35426795109096243	0.17914235810951665	0.8151821273457828	0.3538719979808875	0.16997021000821705	0.8309905987575199	0.3158963747981078	0.23041073364455386	0.8787164085140999
240	4.067796610169491	0.4462616577993854	0.3729018200137893	0.8392101253918509	0.4470749550494435	0.5119937923755065	1.2788600719497725	0.4420927867975146	0.656884907034857	1.6921253633282425	0.41089260573824354	0.5770448898069946	1.7311929461055473	0.46336584214388643	0.596189924046308	1.7297984847332974	0.41861403748325254	0.6847479442197211	1.7246296501555511	0.23719864902518745	0.38038499597519915	0.8394812680456357	0.23938620242154784	0.5101782147881722	1.2849246443914575	0.2104345194039322	0.6436957821081817	1.714171094862567	0.26460457021217554	0.5235435609943805	1.7204327795305545	0.19371802970010082	0.527511072211876	1.7127991925082833	0.21628632526898256	0.6609781171856818	1.735061297896231	0.34688346433343176	0.37322803243929653	0.29104297278000846	0.3788075153107286	0.3145151243215438	0.0697881071286664	0.3806179235408325	0.25431200246488794	0.19595775135059532	0.4832563674131191	0.4133905790109085	0.3922843243144639	0.5327836477840765	0.43320682049699055	0.658254370856699	0.5488106509294994	0.35466449618962864	0.8763661593745743	0.4615914524109699	0.22862625143060195	0.9161675068372163	0.4672884390945477	0.22091242678073097	0.9779534907508818	0.49831043460263846	0.27460020895892906	1.0059062229433822	0.17933058306499483	0.3585987082012223	0.3696537500765006	0.1321357440529793	0.360873709848925	0.6254264783903305	0.2742298621455534	0.21773767655808182	0.7616879040243152	0.35211951784186835	0.16725795502998558	0.8094251181812344	0.3581829712481696	0.15765714158644933	0.8254190302229775	0.32099766194123663	0.21916589217812177	0.8803342939472748
241	4.084745762711864	0.44686833440382434	0.3748440977576556	0.8432589306703759	0.44718610567285233	0.5118611560088681	1.2787396977586725	0.44207451775699447	0.6568255223701681	1.6921884190273797	0.41116691089281227	0.5772373511606105	1.730980713387546	0.4722086722637364	0.5948872453037692	1.727568525672181	0.41855607466776407	0.6849495339660673	1.7245397703796426	0.23725900650542256	0.38054786370907345	0.8396575757521282	0.23954397361734742	0.5102787284856409	1.2849719252532297	0.21044370595378317	0.6437101811755521	1.7141196489343433	0.26736885124465887	0.5260256765415412	1.7214357638419264	0.19467174514315555	0.5297077834252498	1.7186852653982516	0.21626326942495777	0.6611540513040997	1.7349608224883573	0.3468555224831402	0.37302625662793054	0.29107667328026887	0.3786713265192379	0.3144660280122934	0.06982144062465438	0.3787093892710208	0.24338928650653566	0.1932398700581323	0.49189965908974326	0.4023134746960782	0.39151808843709834	0.5400175804642364	0.4315590856743576	0.6573844477841975	0.5486953245569152	0.3549255602540559	0.8761920949640383	0.46834601731568537	0.2323256258804204	0.9131522433374577	0.4742909708233849	0.23265004144813456	0.9761268007476429	0.4983619954549138	0.27485578778108366	0.998161867686594	0.17929508480329348	0.35859278193908173	0.36967366998409584	0.13793434560034812	0.3487883285320138	0.6237757726263774	0.27268278686836994	0.20731689199262793	0.7598725038089126	0.35205385750301393	0.16731088832946506	0.8092289617893588	0.3533234678980147	0.16794966640944145	0.827614827873787	0.3204654829230984	0.22017877323719218	0.8771520997986588
242	4.101694915254237	0.4494430035489288	0.3861650769855859	0.8453625560931818	0.452790665552376	0.4971784598334094	1.2735786415893813	0.4382977734037111	0.6545960649411157	1.69139857470183	0.4112342070055481	0.5771318640116895	1.7313395714216524	0.47232536624397625	0.594467932519168	1.7278819231478066	0.4185799221511478	0.6849059169835717	1.724502921357177	0.23728158805165941	0.3807611413650217	0.8397350049257905	0.23986112092420037	0.510650323875356	1.285164832784535	0.21052014281564244	0.643828964579466	1.714041701130134	0.2675590467533128	0.5262058978081171	1.7213747689910146	0.19436049207974543	0.5300809493294685	1.7183901978685678	0.21627667445684237	0.661115860391272	1.7346589885904966	0.34687786118062547	0.37294467452730684	0.2910622822261433	0.3786679698012388	0.31438024509944423	0.06977867565643289	0.3768223265814242	0.2325116536780551	0.19346343024972212	0.4922740818553658	0.4040046106319175	0.3954150880838366	0.5405215413973167	0.4338209478610482	0.6613801918128771	0.5457800577476134	0.34427945744404503	0.8741340515300344	0.4652453725456245	0.23027488076304028	0.9091927148705274	0.4722312399842817	0.2212859998059766	0.9698213066075346	0.49528093475928775	0.2846688428390662	0.9949619223892884	0.17938607789180058	0.3586459069884522	0.36967897434811336	0.13908509207796083	0.3599116805586438	0.624900059397412	0.272813553845657	0.20729795917818344	0.7598070294741633	0.35212277656953894	0.16708906503608642	0.8090746843575393	0.3581091139885694	0.15774483870443945	0.8252741058965543	0.32067052183538963	0.22004505268650904	0.8771682112981624
243	4.11864406779661	0.44942007333908157	0.38615883150601255	0.8455740909233469	0.4528086813807284	0.49707379818160946	1.2735123751192938	0.4382927379990788	0.6544879288755058	1.6913861462016357	0.4111556792814031	0.5771491433531548	1.7314996997857	0.4721635223650516	0.5941105859978814	1.728189723888731	0.41853070486391275	0.6841437507925503	1.7247336513696794	0.23723314881803137	0.38054252130852106	0.8398162243082359	0.23989802837690835	0.5103889601201977	1.2850628985062	0.21053662290761643	0.6437438993598099	1.7140164573197012	0.2711742933528082	0.531126257681135	1.7281929937185196	0.19985615140050114	0.5462683101811107	1.7256863365358763	0.21322505234472838	0.6606066623599707	1.7395107601234328	0.34679776421925324	0.37296059226051764	0.29107427026456506	0.3786851215310214	0.3143445403715685	0.06974516851272655	0.37675465617563103	0.23235742507442209	0.19338885332094025	0.4876307760919156	0.4161575905831734	0.3993417705314925	0.5433053069347643	0.44564310379510585	0.6628482738154298	0.5487819762818954	0.3549345871054724	0.8760447040696678	0.4644953892543105	0.22872238221780372	0.9045196947026178	0.47164653144301444	0.22277265095544033	0.9664565922297991	0.4908402888876171	0.283990378093807	0.9945846822868896	0.17927685247564307	0.35874972515237463	0.36978496360368107	0.13808358955544453	0.34883907151609156	0.6238581090088227	0.2727825296494206	0.20720387516753813	0.7599153321696589	0.35221213457512457	0.1669431498846809	0.8090636099675991	0.35826616880651363	0.15751488348247428	0.825197150420721	0.3266363108120919	0.2085366737313265	0.8775620196770747
